<svg viewBox="0 0 500 750" xmlns="http://www.w3.org/2000/svg" font-family="Poppins, 'Segoe UI', sans-serif">
  <defs>
    <linearGradient id="bganimalP" x1="0" y1="0" x2="0" y2="1">
      <stop offset="0%" stop-color="#3a0303"/>
      <stop offset="45%" stop-color="#1a0101"/>
      <stop offset="100%" stop-color="#050000"/>
    </linearGradient>
  </defs>
  <rect width="500" height="750" fill="url(#bganimalP)"/>
  <path d="M0,412.5 L83.3,280.9 L166.7,428.5 L250.0,391.0 L333.3,253.1 L416.7,326.1 L500.0,445.2 L500,750 L0,750 Z" fill="#6e0d0d" opacity="0.85"/><path d="M0,465.0 L83.3,357.3 L166.7,478.1 L250.0,447.4 L333.3,334.6 L416.7,394.3 L500.0,491.7 L500,750 L0,750 Z" fill="#2c0505" opacity="0.9"/>
  <circle cx="161.92" cy="113.14" r="2.04" fill="white" opacity="0.34"/><circle cx="267.94" cy="274.27" r="1.09" fill="white" opacity="0.55"/><circle cx="18.75" cy="325.23" r="1.11" fill="white" opacity="0.35"/><circle cx="212.26" cy="620.14" r="1.20" fill="white" opacity="0.41"/><circle cx="313.72" cy="710.78" r="1.92" fill="white" opacity="0.50"/><circle cx="488.13" cy="34.94" r="2.37" fill="white" opacity="0.44"/><circle cx="72.13" cy="88.34" r="1.49" fill="white" opacity="0.71"/><circle cx="90.36" cy="436.20" r="2.02" fill="white" opacity="0.49"/><circle cx="273.87" cy="47.09" r="1.10" fill="white" opacity="0.40"/><circle cx="340.20" cy="320.69" r="1.50" fill="white" opacity="0.59"/><circle cx="226.59" cy="224.83" r="2.27" fill="white" opacity="0.65"/><circle cx="122.05" cy="430.82" r="1.84" fill="white" opacity="0.74"/><circle cx="364.72" cy="215.95" r="2.57" fill="white" opacity="0.36"/><circle cx="209.06" cy="567.86" r="1.24" fill="white" opacity="0.54"/><circle cx="19.60" cy="501.16" r="2.22" fill="white" opacity="0.59"/><circle cx="437.74" cy="235.31" r="2.11" fill="white" opacity="0.60"/><circle cx="289.95" cy="342.15" r="2.34" fill="white" opacity="0.77"/><circle cx="237.05" cy="498.11" r="1.10" fill="white" opacity="0.65"/><circle cx="323.56" cy="744.82" r="2.32" fill="white" opacity="0.44"/><circle cx="192.90" cy="501.49" r="1.04" fill="white" opacity="0.53"/><circle cx="84.02" cy="87.82" r="1.09" fill="white" opacity="0.68"/><circle cx="64.67" cy="185.71" r="1.63" fill="white" opacity="0.74"/><circle cx="40.29" cy="336.89" r="1.88" fill="white" opacity="0.74"/><circle cx="409.64" cy="647.99" r="1.45" fill="white" opacity="0.51"/><circle cx="179.39" cy="663.14" r="2.53" fill="white" opacity="0.38"/><circle cx="88.11" cy="173.97" r="1.37" fill="white" opacity="0.54"/><circle cx="294.56" cy="197.06" r="1.01" fill="white" opacity="0.51"/><circle cx="184.63" cy="424.76" r="2.52" fill="white" opacity="0.65"/><circle cx="257.75" cy="463.19" r="2.08" fill="white" opacity="0.33"/><circle cx="449.77" cy="584.98" r="2.40" fill="white" opacity="0.70"/><circle cx="196.19" cy="299.23" r="1.17" fill="white" opacity="0.62"/><circle cx="31.12" cy="50.51" r="1.33" fill="white" opacity="0.38"/><circle cx="170.03" cy="39.43" r="1.00" fill="white" opacity="0.38"/><circle cx="50.73" cy="272.71" r="1.04" fill="white" opacity="0.74"/><circle cx="307.03" cy="111.41" r="1.40" fill="white" opacity="0.47"/><circle cx="182.08" cy="92.13" r="2.36" fill="white" opacity="0.80"/><circle cx="232.99" cy="362.88" r="1.14" fill="white" opacity="0.35"/><circle cx="171.32" cy="198.57" r="2.33" fill="white" opacity="0.38"/><circle cx="11.55" cy="713.24" r="1.85" fill="white" opacity="0.37"/><circle cx="271.59" cy="20.28" r="1.84" fill="white" opacity="0.79"/><circle cx="431.66" cy="522.15" r="1.42" fill="white" opacity="0.48"/><circle cx="83.52" cy="578.95" r="1.85" fill="white" opacity="0.69"/><circle cx="164.83" cy="167.28" r="2.30" fill="white" opacity="0.79"/><circle cx="426.31" cy="604.56" r="2.31" fill="white" opacity="0.67"/><circle cx="113.37" cy="388.23" r="1.57" fill="white" opacity="0.31"/><circle cx="13.97" cy="209.56" r="1.41" fill="white" opacity="0.65"/><circle cx="478.26" cy="335.42" r="2.50" fill="white" opacity="0.79"/><circle cx="477.50" cy="273.48" r="1.35" fill="white" opacity="0.41"/><circle cx="98.35" cy="153.28" r="2.00" fill="white" opacity="0.75"/><circle cx="420.22" cy="359.61" r="2.04" fill="white" opacity="0.70"/><circle cx="42.39" cy="495.44" r="2.46" fill="white" opacity="0.69"/><circle cx="375.07" cy="358.52" r="1.29" fill="white" opacity="0.69"/><circle cx="166.26" cy="600.62" r="2.55" fill="white" opacity="0.50"/><circle cx="200.69" cy="710.10" r="2.16" fill="white" opacity="0.39"/><circle cx="63.52" cy="113.36" r="2.45" fill="white" opacity="0.70"/><circle cx="73.09" cy="619.88" r="2.57" fill="white" opacity="0.63"/><circle cx="175.20" cy="411.50" r="1.21" fill="white" opacity="0.31"/><circle cx="485.45" cy="487.26" r="1.84" fill="white" opacity="0.77"/><circle cx="216.90" cy="653.81" r="2.32" fill="white" opacity="0.41"/><circle cx="125.92" cy="219.72" r="1.38" fill="white" opacity="0.59"/>
  <line x1="250.0" y1="315.0" x2="750" y2="315" stroke="#ff2020" stroke-width="3" opacity="0.12"/><line x1="250.0" y1="315.0" x2="720" y2="486" stroke="#ff2020" stroke-width="3" opacity="0.12"/><line x1="250.0" y1="315.0" x2="633" y2="636" stroke="#ff2020" stroke-width="3" opacity="0.12"/><line x1="250.0" y1="315.0" x2="500" y2="748" stroke="#ff2020" stroke-width="3" opacity="0.12"/><line x1="250.0" y1="315.0" x2="337" y2="807" stroke="#ff2020" stroke-width="3" opacity="0.12"/><line x1="250.0" y1="315.0" x2="163" y2="807" stroke="#ff2020" stroke-width="3" opacity="0.12"/><line x1="250.0" y1="315.0" x2="0" y2="748" stroke="#ff2020" stroke-width="3" opacity="0.12"/><line x1="250.0" y1="315.0" x2="-133" y2="636" stroke="#ff2020" stroke-width="3" opacity="0.12"/><line x1="250.0" y1="315.0" x2="-220" y2="486" stroke="#ff2020" stroke-width="3" opacity="0.12"/><line x1="250.0" y1="315.0" x2="-250" y2="315" stroke="#ff2020" stroke-width="3" opacity="0.12"/><line x1="250.0" y1="315.0" x2="-220" y2="144" stroke="#ff2020" stroke-width="3" opacity="0.12"/><line x1="250.0" y1="315.0" x2="-133" y2="-6" stroke="#ff2020" stroke-width="3" opacity="0.12"/><line x1="250.0" y1="315.0" x2="-0" y2="-118" stroke="#ff2020" stroke-width="3" opacity="0.12"/><line x1="250.0" y1="315.0" x2="163" y2="-177" stroke="#ff2020" stroke-width="3" opacity="0.12"/><line x1="250.0" y1="315.0" x2="337" y2="-177" stroke="#ff2020" stroke-width="3" opacity="0.12"/><line x1="250.0" y1="315.0" x2="500" y2="-118" stroke="#ff2020" stroke-width="3" opacity="0.12"/><line x1="250.0" y1="315.0" x2="633" y2="-6" stroke="#ff2020" stroke-width="3" opacity="0.12"/><line x1="250.0" y1="315.0" x2="720" y2="144" stroke="#ff2020" stroke-width="3" opacity="0.12"/>
  
    <g transform="translate(250.0,375.0) scale(0.62)" fill="#030000">
      <ellipse cx="0" cy="60" rx="17" ry="52" />
      <circle cx="0" cy="0" r="17" />
      <path d="M0,20 L-34,45 L-28,58 L8,32 Z" />
      <path d="M0,20 L32,50 L24,62 L-6,30 Z" />
      <path d="M-10,105 L-26,168 L-10,172 L2,112 Z" />
      <path d="M10,105 L26,168 L10,172 L-2,112 Z" />
    </g>
  <rect x="0" y="559" width="500" height="191" fill="black" opacity="0.38"/>
  <text x="250" y="639" text-anchor="middle" font-size="44" font-weight="800" fill="white" letter-spacing="1">ANIMAL</text>
  <text x="250" y="677" text-anchor="middle" font-size="19" font-weight="400" fill="rgba(255,255,255,0.85)" font-style="italic">Some bonds are written in blood.</text>
  <text x="250" y="727" text-anchor="middle" font-size="15" font-weight="600" fill="rgba(255,255,255,0.55)" letter-spacing="3">A PVR EXCLUSIVE</text>
</svg>