<svg viewBox="0 0 500 750" xmlns="http://www.w3.org/2000/svg" font-family="Poppins, 'Segoe UI', sans-serif">
  <defs>
    <linearGradient id="bgjawanP" x1="0" y1="0" x2="0" y2="1">
      <stop offset="0%" stop-color="#0a3a3a"/>
      <stop offset="45%" stop-color="#052020"/>
      <stop offset="100%" stop-color="#020a0a"/>
    </linearGradient>
  </defs>
  <rect width="500" height="750" fill="url(#bgjawanP)"/>
  <path d="M0,412.5 L83.3,248.7 L166.7,344.0 L250.0,445.0 L333.3,323.6 L416.7,253.9 L500.0,393.3 L500,750 L0,750 Z" fill="#146060" opacity="0.85"/><path d="M0,465.0 L83.3,331.0 L166.7,409.0 L250.0,491.6 L333.3,392.2 L416.7,335.3 L500.0,449.3 L500,750 L0,750 Z" fill="#0a3838" opacity="0.9"/>
  <circle cx="396.67" cy="616.47" r="1.78" fill="white" opacity="0.43"/><circle cx="0.23" cy="497.11" r="1.75" fill="white" opacity="0.68"/><circle cx="186.58" cy="577.60" r="1.44" fill="white" opacity="0.70"/><circle cx="364.91" cy="310.50" r="1.86" fill="white" opacity="0.64"/><circle cx="96.49" cy="415.21" r="2.29" fill="white" opacity="0.43"/><circle cx="401.68" cy="514.27" r="2.35" fill="white" opacity="0.47"/><circle cx="46.57" cy="600.21" r="2.29" fill="white" opacity="0.52"/><circle cx="46.89" cy="147.87" r="2.02" fill="white" opacity="0.45"/><circle cx="475.69" cy="441.43" r="1.32" fill="white" opacity="0.63"/><circle cx="180.19" cy="699.55" r="2.46" fill="white" opacity="0.56"/><circle cx="322.29" cy="523.43" r="2.29" fill="white" opacity="0.79"/><circle cx="14.21" cy="271.03" r="1.96" fill="white" opacity="0.45"/><circle cx="294.58" cy="67.27" r="2.41" fill="white" opacity="0.56"/><circle cx="58.41" cy="497.06" r="1.50" fill="white" opacity="0.40"/><circle cx="241.87" cy="103.58" r="1.34" fill="white" opacity="0.73"/><circle cx="349.11" cy="9.39" r="2.24" fill="white" opacity="0.31"/><circle cx="166.46" cy="678.33" r="1.99" fill="white" opacity="0.45"/><circle cx="188.70" cy="291.87" r="1.20" fill="white" opacity="0.80"/><circle cx="26.91" cy="317.17" r="2.19" fill="white" opacity="0.50"/><circle cx="490.49" cy="183.98" r="2.57" fill="white" opacity="0.75"/><circle cx="335.11" cy="667.13" r="1.72" fill="white" opacity="0.72"/><circle cx="398.05" cy="387.51" r="1.75" fill="white" opacity="0.65"/><circle cx="204.53" cy="64.45" r="2.19" fill="white" opacity="0.43"/><circle cx="243.83" cy="588.02" r="1.28" fill="white" opacity="0.31"/><circle cx="61.75" cy="442.06" r="1.58" fill="white" opacity="0.43"/><circle cx="225.77" cy="695.70" r="1.41" fill="white" opacity="0.51"/><circle cx="439.65" cy="459.13" r="1.43" fill="white" opacity="0.54"/><circle cx="239.27" cy="106.64" r="1.60" fill="white" opacity="0.45"/><circle cx="402.37" cy="242.54" r="2.05" fill="white" opacity="0.79"/><circle cx="461.54" cy="282.03" r="1.96" fill="white" opacity="0.46"/><circle cx="199.14" cy="366.00" r="2.27" fill="white" opacity="0.77"/><circle cx="145.39" cy="4.64" r="1.72" fill="white" opacity="0.33"/><circle cx="15.06" cy="580.18" r="1.18" fill="white" opacity="0.66"/><circle cx="181.01" cy="703.83" r="2.37" fill="white" opacity="0.33"/><circle cx="96.32" cy="710.54" r="1.98" fill="white" opacity="0.51"/><circle cx="391.15" cy="610.14" r="1.79" fill="white" opacity="0.53"/><circle cx="50.08" cy="271.48" r="1.23" fill="white" opacity="0.61"/><circle cx="303.29" cy="108.21" r="2.00" fill="white" opacity="0.35"/><circle cx="52.72" cy="484.18" r="1.74" fill="white" opacity="0.75"/><circle cx="314.60" cy="526.03" r="1.20" fill="white" opacity="0.72"/><circle cx="41.77" cy="463.59" r="2.46" fill="white" opacity="0.75"/><circle cx="446.65" cy="338.99" r="2.11" fill="white" opacity="0.70"/><circle cx="68.54" cy="707.55" r="2.45" fill="white" opacity="0.52"/><circle cx="389.25" cy="335.31" r="1.44" fill="white" opacity="0.66"/><circle cx="31.84" cy="600.15" r="2.56" fill="white" opacity="0.44"/><circle cx="469.84" cy="62.76" r="2.37" fill="white" opacity="0.44"/><circle cx="483.11" cy="323.02" r="2.48" fill="white" opacity="0.32"/><circle cx="42.82" cy="612.28" r="2.02" fill="white" opacity="0.57"/><circle cx="16.36" cy="129.97" r="1.59" fill="white" opacity="0.33"/><circle cx="496.52" cy="573.90" r="2.52" fill="white" opacity="0.65"/><circle cx="171.74" cy="58.20" r="2.17" fill="white" opacity="0.36"/><circle cx="273.56" cy="348.04" r="1.79" fill="white" opacity="0.34"/><circle cx="36.99" cy="390.20" r="1.05" fill="white" opacity="0.56"/><circle cx="75.15" cy="211.28" r="1.24" fill="white" opacity="0.58"/><circle cx="194.15" cy="167.31" r="1.35" fill="white" opacity="0.58"/><circle cx="455.29" cy="314.35" r="1.26" fill="white" opacity="0.46"/><circle cx="120.17" cy="429.27" r="2.26" fill="white" opacity="0.58"/><circle cx="94.07" cy="243.95" r="1.61" fill="white" opacity="0.52"/><circle cx="198.76" cy="748.14" r="1.88" fill="white" opacity="0.63"/><circle cx="358.19" cy="483.86" r="2.29" fill="white" opacity="0.49"/>
  <ellipse cx="250.0" cy="40" rx="18" ry="26" fill="none" stroke="#7fffd4" stroke-width="5" opacity="0.3" transform="rotate(0 250.0 40)"/><ellipse cx="250.0" cy="110" rx="18" ry="26" fill="none" stroke="#7fffd4" stroke-width="5" opacity="0.3" transform="rotate(90 250.0 110)"/><ellipse cx="250.0" cy="180" rx="18" ry="26" fill="none" stroke="#7fffd4" stroke-width="5" opacity="0.3" transform="rotate(0 250.0 180)"/><ellipse cx="250.0" cy="250" rx="18" ry="26" fill="none" stroke="#7fffd4" stroke-width="5" opacity="0.3" transform="rotate(90 250.0 250)"/><ellipse cx="250.0" cy="320" rx="18" ry="26" fill="none" stroke="#7fffd4" stroke-width="5" opacity="0.3" transform="rotate(0 250.0 320)"/><ellipse cx="250.0" cy="390" rx="18" ry="26" fill="none" stroke="#7fffd4" stroke-width="5" opacity="0.3" transform="rotate(90 250.0 390)"/><ellipse cx="250.0" cy="460" rx="18" ry="26" fill="none" stroke="#7fffd4" stroke-width="5" opacity="0.3" transform="rotate(0 250.0 460)"/><ellipse cx="250.0" cy="530" rx="18" ry="26" fill="none" stroke="#7fffd4" stroke-width="5" opacity="0.3" transform="rotate(90 250.0 530)"/><ellipse cx="250.0" cy="600" rx="18" ry="26" fill="none" stroke="#7fffd4" stroke-width="5" opacity="0.3" transform="rotate(0 250.0 600)"/><ellipse cx="250.0" cy="670" rx="18" ry="26" fill="none" stroke="#7fffd4" stroke-width="5" opacity="0.3" transform="rotate(90 250.0 670)"/>
  
    <g transform="translate(250.0,375.0) scale(0.62)" fill="#020808">
      <ellipse cx="0" cy="60" rx="17" ry="52" />
      <circle cx="0" cy="0" r="17" />
      <path d="M0,20 L-34,45 L-28,58 L8,32 Z" />
      <path d="M0,20 L32,50 L24,62 L-6,30 Z" />
      <path d="M-10,105 L-26,168 L-10,172 L2,112 Z" />
      <path d="M10,105 L26,168 L10,172 L-2,112 Z" />
    </g>
  <rect x="0" y="559" width="500" height="191" fill="black" opacity="0.38"/>
  <text x="250" y="639" text-anchor="middle" font-size="44" font-weight="800" fill="white" letter-spacing="1">JAWAN</text>
  <text x="250" y="677" text-anchor="middle" font-size="19" font-weight="400" fill="rgba(255,255,255,0.85)" font-style="italic">One man. Many faces. One fight.</text>
  <text x="250" y="727" text-anchor="middle" font-size="15" font-weight="600" fill="rgba(255,255,255,0.55)" letter-spacing="3">A PVR EXCLUSIVE</text>
</svg>