<svg viewBox="0 0 500 750" xmlns="http://www.w3.org/2000/svg" font-family="Poppins, 'Segoe UI', sans-serif">
  <defs>
    <linearGradient id="bgpathaanP" x1="0" y1="0" x2="0" y2="1">
      <stop offset="0%" stop-color="#0f2a4a"/>
      <stop offset="45%" stop-color="#5c0f14"/>
      <stop offset="100%" stop-color="#070d16"/>
    </linearGradient>
  </defs>
  <rect width="500" height="750" fill="url(#bgpathaanP)"/>
  <path d="M0,412.5 L83.3,306.4 L166.7,261.9 L250.0,408.4 L333.3,415.2 L416.7,266.9 L500.0,298.3 L500,750 L0,750 Z" fill="#1c4f7a" opacity="0.85"/><path d="M0,465.0 L83.3,378.2 L166.7,341.8 L250.0,461.6 L333.3,467.2 L416.7,345.9 L500.0,371.6 L500,750 L0,750 Z" fill="#8c1620" opacity="0.9"/>
  <circle cx="311.45" cy="556.34" r="2.27" fill="white" opacity="0.77"/><circle cx="369.95" cy="691.74" r="1.05" fill="white" opacity="0.53"/><circle cx="471.68" cy="486.73" r="2.44" fill="white" opacity="0.36"/><circle cx="234.53" cy="184.93" r="1.87" fill="white" opacity="0.59"/><circle cx="6.56" cy="162.55" r="1.45" fill="white" opacity="0.76"/><circle cx="382.86" cy="119.70" r="2.28" fill="white" opacity="0.37"/><circle cx="308.73" cy="95.02" r="1.00" fill="white" opacity="0.74"/><circle cx="104.73" cy="161.61" r="2.57" fill="white" opacity="0.74"/><circle cx="144.65" cy="721.11" r="1.86" fill="white" opacity="0.64"/><circle cx="102.39" cy="705.73" r="2.11" fill="white" opacity="0.78"/><circle cx="446.87" cy="224.09" r="1.58" fill="white" opacity="0.38"/><circle cx="72.85" cy="48.85" r="1.48" fill="white" opacity="0.60"/><circle cx="1.69" cy="508.45" r="1.54" fill="white" opacity="0.45"/><circle cx="409.26" cy="360.56" r="1.51" fill="white" opacity="0.54"/><circle cx="352.33" cy="42.75" r="2.56" fill="white" opacity="0.31"/><circle cx="374.90" cy="633.66" r="1.03" fill="white" opacity="0.69"/><circle cx="183.09" cy="433.89" r="1.01" fill="white" opacity="0.32"/><circle cx="90.46" cy="716.38" r="1.31" fill="white" opacity="0.68"/><circle cx="464.83" cy="706.53" r="1.55" fill="white" opacity="0.48"/><circle cx="262.35" cy="581.70" r="1.17" fill="white" opacity="0.67"/><circle cx="398.61" cy="644.77" r="1.06" fill="white" opacity="0.77"/><circle cx="45.59" cy="255.56" r="1.98" fill="white" opacity="0.76"/><circle cx="169.98" cy="693.15" r="1.87" fill="white" opacity="0.46"/><circle cx="158.40" cy="133.11" r="1.13" fill="white" opacity="0.37"/><circle cx="344.59" cy="747.55" r="1.26" fill="white" opacity="0.32"/><circle cx="493.35" cy="400.15" r="1.65" fill="white" opacity="0.42"/><circle cx="296.98" cy="619.72" r="1.73" fill="white" opacity="0.51"/><circle cx="27.85" cy="687.05" r="1.05" fill="white" opacity="0.55"/><circle cx="419.21" cy="97.93" r="2.17" fill="white" opacity="0.77"/><circle cx="315.20" cy="591.01" r="1.17" fill="white" opacity="0.52"/><circle cx="74.62" cy="633.55" r="1.47" fill="white" opacity="0.53"/><circle cx="499.65" cy="639.19" r="2.56" fill="white" opacity="0.53"/><circle cx="244.08" cy="547.13" r="1.77" fill="white" opacity="0.45"/><circle cx="201.89" cy="109.88" r="1.60" fill="white" opacity="0.79"/><circle cx="479.91" cy="470.22" r="1.80" fill="white" opacity="0.47"/><circle cx="44.57" cy="204.23" r="2.25" fill="white" opacity="0.73"/><circle cx="180.66" cy="589.52" r="2.24" fill="white" opacity="0.65"/><circle cx="332.01" cy="569.73" r="1.58" fill="white" opacity="0.65"/><circle cx="140.43" cy="364.26" r="2.23" fill="white" opacity="0.65"/><circle cx="146.93" cy="709.16" r="2.04" fill="white" opacity="0.59"/><circle cx="5.79" cy="410.24" r="1.40" fill="white" opacity="0.64"/><circle cx="231.47" cy="612.51" r="2.04" fill="white" opacity="0.70"/><circle cx="173.94" cy="483.05" r="2.18" fill="white" opacity="0.71"/><circle cx="175.02" cy="632.16" r="2.39" fill="white" opacity="0.64"/><circle cx="488.06" cy="717.39" r="1.83" fill="white" opacity="0.56"/><circle cx="83.09" cy="627.47" r="2.50" fill="white" opacity="0.54"/><circle cx="345.71" cy="539.76" r="2.17" fill="white" opacity="0.39"/><circle cx="390.19" cy="435.63" r="2.06" fill="white" opacity="0.51"/><circle cx="311.87" cy="581.03" r="2.02" fill="white" opacity="0.66"/><circle cx="13.81" cy="120.02" r="1.71" fill="white" opacity="0.63"/><circle cx="109.52" cy="514.47" r="2.01" fill="white" opacity="0.32"/><circle cx="235.79" cy="169.68" r="1.09" fill="white" opacity="0.37"/><circle cx="158.68" cy="136.16" r="1.31" fill="white" opacity="0.32"/><circle cx="232.67" cy="285.22" r="1.98" fill="white" opacity="0.60"/><circle cx="118.92" cy="677.39" r="1.00" fill="white" opacity="0.50"/><circle cx="139.26" cy="307.53" r="1.18" fill="white" opacity="0.72"/><circle cx="186.94" cy="27.05" r="1.98" fill="white" opacity="0.35"/><circle cx="272.61" cy="254.53" r="1.93" fill="white" opacity="0.78"/><circle cx="409.26" cy="314.33" r="2.30" fill="white" opacity="0.62"/><circle cx="184.72" cy="106.58" r="1.95" fill="white" opacity="0.58"/>
  <line x1="250.0" y1="315.0" x2="750" y2="315" stroke="#ff3b3b" stroke-width="3" opacity="0.12"/><line x1="250.0" y1="315.0" x2="720" y2="486" stroke="#ff3b3b" stroke-width="3" opacity="0.12"/><line x1="250.0" y1="315.0" x2="633" y2="636" stroke="#ff3b3b" stroke-width="3" opacity="0.12"/><line x1="250.0" y1="315.0" x2="500" y2="748" stroke="#ff3b3b" stroke-width="3" opacity="0.12"/><line x1="250.0" y1="315.0" x2="337" y2="807" stroke="#ff3b3b" stroke-width="3" opacity="0.12"/><line x1="250.0" y1="315.0" x2="163" y2="807" stroke="#ff3b3b" stroke-width="3" opacity="0.12"/><line x1="250.0" y1="315.0" x2="0" y2="748" stroke="#ff3b3b" stroke-width="3" opacity="0.12"/><line x1="250.0" y1="315.0" x2="-133" y2="636" stroke="#ff3b3b" stroke-width="3" opacity="0.12"/><line x1="250.0" y1="315.0" x2="-220" y2="486" stroke="#ff3b3b" stroke-width="3" opacity="0.12"/><line x1="250.0" y1="315.0" x2="-250" y2="315" stroke="#ff3b3b" stroke-width="3" opacity="0.12"/><line x1="250.0" y1="315.0" x2="-220" y2="144" stroke="#ff3b3b" stroke-width="3" opacity="0.12"/><line x1="250.0" y1="315.0" x2="-133" y2="-6" stroke="#ff3b3b" stroke-width="3" opacity="0.12"/><line x1="250.0" y1="315.0" x2="-0" y2="-118" stroke="#ff3b3b" stroke-width="3" opacity="0.12"/><line x1="250.0" y1="315.0" x2="163" y2="-177" stroke="#ff3b3b" stroke-width="3" opacity="0.12"/><line x1="250.0" y1="315.0" x2="337" y2="-177" stroke="#ff3b3b" stroke-width="3" opacity="0.12"/><line x1="250.0" y1="315.0" x2="500" y2="-118" stroke="#ff3b3b" stroke-width="3" opacity="0.12"/><line x1="250.0" y1="315.0" x2="633" y2="-6" stroke="#ff3b3b" stroke-width="3" opacity="0.12"/><line x1="250.0" y1="315.0" x2="720" y2="144" stroke="#ff3b3b" stroke-width="3" opacity="0.12"/>
  
    <g transform="translate(250.0,375.0) scale(0.62)" fill="#050a12">
      <ellipse cx="0" cy="60" rx="17" ry="52" />
      <circle cx="0" cy="0" r="17" />
      <path d="M0,20 L-34,45 L-28,58 L8,32 Z" />
      <path d="M0,20 L32,50 L24,62 L-6,30 Z" />
      <path d="M-10,105 L-26,168 L-10,172 L2,112 Z" />
      <path d="M10,105 L26,168 L10,172 L-2,112 Z" />
    </g>
  <rect x="0" y="559" width="500" height="191" fill="black" opacity="0.38"/>
  <text x="250" y="639" text-anchor="middle" font-size="44" font-weight="800" fill="white" letter-spacing="1">PATHAAN</text>
  <text x="250" y="677" text-anchor="middle" font-size="19" font-weight="400" fill="rgba(255,255,255,0.85)" font-style="italic">Some soldiers don't wear a uniform.</text>
  <text x="250" y="727" text-anchor="middle" font-size="15" font-weight="600" fill="rgba(255,255,255,0.55)" letter-spacing="3">A PVR EXCLUSIVE</text>
</svg>