<svg viewBox="0 0 500 750" xmlns="http://www.w3.org/2000/svg" font-family="Poppins, 'Segoe UI', sans-serif">
  <defs>
    <linearGradient id="bgpushpa_2_the_ruleP" x1="0" y1="0" x2="0" y2="1">
      <stop offset="0%" stop-color="#1c3a1c"/>
      <stop offset="45%" stop-color="#0e2010"/>
      <stop offset="100%" stop-color="#050a05"/>
    </linearGradient>
  </defs>
  <rect width="500" height="750" fill="url(#bgpushpa_2_the_ruleP)"/>
  <path d="M0,412.5 L83.3,421.9 L166.7,273.2 L250.0,290.0 L333.3,434.4 L416.7,380.4 L500.0,249.9 L500,750 L0,750 Z" fill="#2f5c2a" opacity="0.85"/><path d="M0,465.0 L83.3,472.7 L166.7,351.0 L250.0,364.7 L333.3,482.9 L416.7,438.7 L500.0,332.0 L500,750 L0,750 Z" fill="#173a14" opacity="0.9"/>
  <circle cx="285.70" cy="321.67" r="1.92" fill="white" opacity="0.40"/><circle cx="406.66" cy="617.69" r="2.05" fill="white" opacity="0.38"/><circle cx="260.33" cy="245.83" r="1.40" fill="white" opacity="0.78"/><circle cx="498.28" cy="33.42" r="2.38" fill="white" opacity="0.60"/><circle cx="190.80" cy="212.71" r="2.08" fill="white" opacity="0.53"/><circle cx="342.93" cy="496.38" r="1.21" fill="white" opacity="0.68"/><circle cx="491.21" cy="727.04" r="1.98" fill="white" opacity="0.32"/><circle cx="2.03" cy="100.48" r="2.51" fill="white" opacity="0.45"/><circle cx="183.07" cy="673.65" r="1.50" fill="white" opacity="0.57"/><circle cx="218.02" cy="48.75" r="1.94" fill="white" opacity="0.72"/><circle cx="78.21" cy="168.22" r="1.66" fill="white" opacity="0.32"/><circle cx="248.30" cy="613.49" r="2.05" fill="white" opacity="0.57"/><circle cx="427.56" cy="112.27" r="1.91" fill="white" opacity="0.49"/><circle cx="300.65" cy="84.69" r="2.24" fill="white" opacity="0.35"/><circle cx="83.18" cy="605.59" r="2.52" fill="white" opacity="0.52"/><circle cx="207.04" cy="184.11" r="1.44" fill="white" opacity="0.61"/><circle cx="89.23" cy="89.61" r="1.73" fill="white" opacity="0.38"/><circle cx="324.36" cy="615.79" r="2.24" fill="white" opacity="0.54"/><circle cx="173.79" cy="326.03" r="1.01" fill="white" opacity="0.66"/><circle cx="165.83" cy="239.57" r="1.13" fill="white" opacity="0.52"/><circle cx="291.42" cy="292.94" r="2.39" fill="white" opacity="0.64"/><circle cx="120.70" cy="394.02" r="2.46" fill="white" opacity="0.56"/><circle cx="301.05" cy="47.08" r="1.78" fill="white" opacity="0.53"/><circle cx="200.56" cy="315.33" r="1.94" fill="white" opacity="0.57"/><circle cx="244.95" cy="124.35" r="1.71" fill="white" opacity="0.78"/><circle cx="207.59" cy="26.49" r="1.00" fill="white" opacity="0.57"/><circle cx="25.29" cy="69.56" r="1.17" fill="white" opacity="0.53"/><circle cx="496.34" cy="363.79" r="1.73" fill="white" opacity="0.52"/><circle cx="250.56" cy="335.32" r="2.16" fill="white" opacity="0.75"/><circle cx="348.94" cy="317.48" r="2.04" fill="white" opacity="0.75"/><circle cx="76.81" cy="178.01" r="1.99" fill="white" opacity="0.64"/><circle cx="321.30" cy="441.40" r="2.33" fill="white" opacity="0.54"/><circle cx="403.79" cy="721.77" r="1.70" fill="white" opacity="0.73"/><circle cx="359.12" cy="666.51" r="1.07" fill="white" opacity="0.76"/><circle cx="383.42" cy="721.78" r="2.57" fill="white" opacity="0.44"/><circle cx="335.00" cy="105.96" r="1.95" fill="white" opacity="0.76"/><circle cx="95.99" cy="262.40" r="1.13" fill="white" opacity="0.40"/><circle cx="103.85" cy="72.00" r="2.60" fill="white" opacity="0.74"/><circle cx="231.88" cy="557.78" r="2.11" fill="white" opacity="0.56"/><circle cx="211.74" cy="498.05" r="1.89" fill="white" opacity="0.43"/><circle cx="182.16" cy="470.45" r="2.00" fill="white" opacity="0.40"/><circle cx="304.89" cy="656.20" r="2.39" fill="white" opacity="0.63"/><circle cx="35.09" cy="317.64" r="1.14" fill="white" opacity="0.33"/><circle cx="127.35" cy="342.66" r="2.22" fill="white" opacity="0.61"/><circle cx="141.24" cy="521.30" r="1.81" fill="white" opacity="0.55"/><circle cx="131.81" cy="331.23" r="1.55" fill="white" opacity="0.66"/><circle cx="241.30" cy="335.07" r="1.76" fill="white" opacity="0.54"/><circle cx="344.82" cy="539.89" r="2.28" fill="white" opacity="0.50"/><circle cx="396.77" cy="723.54" r="2.59" fill="white" opacity="0.66"/><circle cx="32.74" cy="635.46" r="2.34" fill="white" opacity="0.31"/><circle cx="163.83" cy="241.57" r="2.18" fill="white" opacity="0.61"/><circle cx="141.16" cy="139.77" r="1.27" fill="white" opacity="0.35"/><circle cx="395.29" cy="701.80" r="1.35" fill="white" opacity="0.67"/><circle cx="475.57" cy="143.80" r="1.92" fill="white" opacity="0.52"/><circle cx="487.43" cy="652.19" r="1.03" fill="white" opacity="0.40"/><circle cx="423.99" cy="430.68" r="1.84" fill="white" opacity="0.70"/><circle cx="382.02" cy="716.06" r="1.52" fill="white" opacity="0.32"/><circle cx="346.14" cy="37.60" r="1.90" fill="white" opacity="0.73"/><circle cx="198.51" cy="450.87" r="1.27" fill="white" opacity="0.38"/><circle cx="303.03" cy="648.36" r="2.60" fill="white" opacity="0.32"/>
  <path d="M0,0 Q10,-20 0,-40 Q-10,-20 0,0 Z" fill="#7fbf5c" opacity="0.35" transform="translate(228,405) rotate(333)"/><path d="M0,0 Q10,-20 0,-40 Q-10,-20 0,0 Z" fill="#7fbf5c" opacity="0.35" transform="translate(234,370) rotate(211)"/><path d="M0,0 Q10,-20 0,-40 Q-10,-20 0,0 Z" fill="#7fbf5c" opacity="0.35" transform="translate(105,373) rotate(227)"/><path d="M0,0 Q10,-20 0,-40 Q-10,-20 0,0 Z" fill="#7fbf5c" opacity="0.35" transform="translate(385,93) rotate(109)"/><path d="M0,0 Q10,-20 0,-40 Q-10,-20 0,0 Z" fill="#7fbf5c" opacity="0.35" transform="translate(62,572) rotate(250)"/><path d="M0,0 Q10,-20 0,-40 Q-10,-20 0,0 Z" fill="#7fbf5c" opacity="0.35" transform="translate(39,688) rotate(347)"/><path d="M0,0 Q10,-20 0,-40 Q-10,-20 0,0 Z" fill="#7fbf5c" opacity="0.35" transform="translate(321,442) rotate(57)"/><path d="M0,0 Q10,-20 0,-40 Q-10,-20 0,0 Z" fill="#7fbf5c" opacity="0.35" transform="translate(27,384) rotate(21)"/><path d="M0,0 Q10,-20 0,-40 Q-10,-20 0,0 Z" fill="#7fbf5c" opacity="0.35" transform="translate(107,192) rotate(11)"/><path d="M0,0 Q10,-20 0,-40 Q-10,-20 0,0 Z" fill="#7fbf5c" opacity="0.35" transform="translate(233,325) rotate(303)"/>
  
    <g transform="translate(250.0,375.0) scale(0.62)" fill="#050a05">
      <ellipse cx="0" cy="60" rx="17" ry="52" />
      <circle cx="0" cy="0" r="17" />
      <path d="M0,20 L-34,45 L-28,58 L8,32 Z" />
      <path d="M0,20 L32,50 L24,62 L-6,30 Z" />
      <path d="M-10,105 L-26,168 L-10,172 L2,112 Z" />
      <path d="M10,105 L26,168 L10,172 L-2,112 Z" />
    </g>
  <rect x="0" y="515" width="500" height="235" fill="black" opacity="0.38"/>
  <text x="250" y="597" text-anchor="middle" font-size="40" font-weight="800" fill="white" letter-spacing="1">PUSHPA 2<tspan x="250" dy="1.1em" font-size="24">The Rule</tspan></text>
  <text x="250" y="687" text-anchor="middle" font-size="18" font-weight="400" fill="rgba(255,255,255,0.85)" font-style="italic">Fire in the forest. Fire in his eyes.</text>
  <text x="250" y="727" text-anchor="middle" font-size="15" font-weight="600" fill="rgba(255,255,255,0.55)" letter-spacing="3">A PVR EXCLUSIVE</text>
</svg>