<svg viewBox="0 0 500 750" xmlns="http://www.w3.org/2000/svg" font-family="Poppins, 'Segoe UI', sans-serif">
  <defs>
    <linearGradient id="bgrrrP" x1="0" y1="0" x2="0" y2="1">
      <stop offset="0%" stop-color="#7a1010"/>
      <stop offset="45%" stop-color="#4a0a0a"/>
      <stop offset="100%" stop-color="#150202"/>
    </linearGradient>
  </defs>
  <rect width="500" height="750" fill="url(#bgrrrP)"/>
  <path d="M0,412.5 L83.3,445.5 L166.7,335.0 L250.0,250.5 L333.3,382.8 L416.7,433.2 L500.0,287.9 L500,750 L0,750 Z" fill="#d4451f" opacity="0.85"/><path d="M0,465.0 L83.3,492.0 L166.7,401.6 L250.0,332.4 L333.3,440.7 L416.7,481.9 L500.0,363.0 L500,750 L0,750 Z" fill="#8c2410" opacity="0.9"/>
  <circle cx="118.98" cy="408.17" r="1.59" fill="white" opacity="0.60"/><circle cx="312.86" cy="49.15" r="1.02" fill="white" opacity="0.72"/><circle cx="129.68" cy="175.75" r="2.59" fill="white" opacity="0.54"/><circle cx="418.23" cy="357.26" r="2.02" fill="white" opacity="0.38"/><circle cx="317.43" cy="651.03" r="1.84" fill="white" opacity="0.67"/><circle cx="335.71" cy="48.02" r="2.21" fill="white" opacity="0.60"/><circle cx="150.63" cy="23.26" r="2.38" fill="white" opacity="0.54"/><circle cx="359.41" cy="659.11" r="2.14" fill="white" opacity="0.76"/><circle cx="197.48" cy="600.68" r="1.71" fill="white" opacity="0.77"/><circle cx="439.43" cy="73.09" r="1.22" fill="white" opacity="0.41"/><circle cx="482.74" cy="327.12" r="2.00" fill="white" opacity="0.45"/><circle cx="253.62" cy="289.40" r="1.56" fill="white" opacity="0.59"/><circle cx="292.13" cy="678.15" r="2.09" fill="white" opacity="0.76"/><circle cx="428.20" cy="743.24" r="2.07" fill="white" opacity="0.38"/><circle cx="430.32" cy="723.47" r="2.45" fill="white" opacity="0.58"/><circle cx="356.91" cy="158.34" r="2.33" fill="white" opacity="0.59"/><circle cx="142.48" cy="47.60" r="2.37" fill="white" opacity="0.79"/><circle cx="44.26" cy="600.45" r="1.66" fill="white" opacity="0.38"/><circle cx="146.95" cy="576.59" r="2.40" fill="white" opacity="0.32"/><circle cx="307.27" cy="33.71" r="2.15" fill="white" opacity="0.47"/><circle cx="440.45" cy="735.48" r="1.81" fill="white" opacity="0.80"/><circle cx="154.84" cy="57.73" r="1.96" fill="white" opacity="0.32"/><circle cx="98.69" cy="305.95" r="1.98" fill="white" opacity="0.38"/><circle cx="21.22" cy="650.83" r="1.50" fill="white" opacity="0.78"/><circle cx="448.33" cy="283.34" r="1.74" fill="white" opacity="0.56"/><circle cx="321.94" cy="446.74" r="1.89" fill="white" opacity="0.61"/><circle cx="470.31" cy="380.27" r="1.69" fill="white" opacity="0.66"/><circle cx="118.82" cy="225.82" r="2.56" fill="white" opacity="0.56"/><circle cx="274.22" cy="8.59" r="1.66" fill="white" opacity="0.59"/><circle cx="10.03" cy="461.85" r="2.01" fill="white" opacity="0.33"/><circle cx="313.67" cy="349.69" r="2.09" fill="white" opacity="0.48"/><circle cx="353.48" cy="553.53" r="1.04" fill="white" opacity="0.33"/><circle cx="338.01" cy="722.48" r="1.40" fill="white" opacity="0.53"/><circle cx="296.34" cy="240.02" r="1.58" fill="white" opacity="0.46"/><circle cx="184.58" cy="446.72" r="1.48" fill="white" opacity="0.49"/><circle cx="386.14" cy="20.19" r="1.91" fill="white" opacity="0.67"/><circle cx="155.01" cy="166.90" r="2.29" fill="white" opacity="0.42"/><circle cx="93.70" cy="326.43" r="2.12" fill="white" opacity="0.35"/><circle cx="160.98" cy="250.32" r="2.33" fill="white" opacity="0.52"/><circle cx="427.77" cy="126.96" r="1.54" fill="white" opacity="0.63"/><circle cx="442.45" cy="338.33" r="1.36" fill="white" opacity="0.36"/><circle cx="264.81" cy="143.10" r="2.29" fill="white" opacity="0.72"/><circle cx="91.79" cy="208.94" r="2.29" fill="white" opacity="0.62"/><circle cx="403.13" cy="258.96" r="1.21" fill="white" opacity="0.45"/><circle cx="396.93" cy="203.38" r="1.55" fill="white" opacity="0.51"/><circle cx="209.89" cy="307.14" r="2.47" fill="white" opacity="0.38"/><circle cx="2.33" cy="707.45" r="2.41" fill="white" opacity="0.79"/><circle cx="217.18" cy="712.62" r="2.48" fill="white" opacity="0.41"/><circle cx="372.76" cy="627.52" r="2.06" fill="white" opacity="0.56"/><circle cx="144.52" cy="255.80" r="1.36" fill="white" opacity="0.33"/><circle cx="294.34" cy="215.26" r="2.30" fill="white" opacity="0.32"/><circle cx="451.80" cy="520.28" r="2.48" fill="white" opacity="0.75"/><circle cx="449.84" cy="432.72" r="1.02" fill="white" opacity="0.67"/><circle cx="85.91" cy="224.92" r="2.06" fill="white" opacity="0.56"/><circle cx="206.88" cy="704.28" r="1.98" fill="white" opacity="0.47"/><circle cx="126.24" cy="646.25" r="1.76" fill="white" opacity="0.69"/><circle cx="175.92" cy="148.00" r="1.86" fill="white" opacity="0.71"/><circle cx="85.65" cy="593.75" r="2.47" fill="white" opacity="0.70"/><circle cx="411.75" cy="5.63" r="2.01" fill="white" opacity="0.73"/><circle cx="24.97" cy="203.55" r="1.43" fill="white" opacity="0.56"/>
  <g transform="translate(250.0,0)"><path d="M-260,165.0 q140,-40 300,0 q140,40 300,0" stroke="#ff7a1a" stroke-width="10" fill="none" opacity="0.25"/><path d="M-260,220.0 q140,-40 300,0 q140,40 300,0" stroke="#ff7a1a" stroke-width="10" fill="none" opacity="0.25"/><path d="M-260,275.0 q140,-40 300,0 q140,40 300,0" stroke="#ff7a1a" stroke-width="10" fill="none" opacity="0.25"/><path d="M-260,330.0 q140,-40 300,0 q140,40 300,0" stroke="#ff7a1a" stroke-width="10" fill="none" opacity="0.25"/><path d="M-260,385.0 q140,-40 300,0 q140,40 300,0" stroke="#ff7a1a" stroke-width="10" fill="none" opacity="0.25"/><path d="M-260,440.0 q140,-40 300,0 q140,40 300,0" stroke="#ff7a1a" stroke-width="10" fill="none" opacity="0.25"/></g>
  
    <g transform="translate(250.0,375.0) scale(0.62)" fill="#120303">
      <ellipse cx="0" cy="60" rx="17" ry="52" />
      <circle cx="0" cy="0" r="17" />
      <path d="M0,20 L-34,45 L-28,58 L8,32 Z" />
      <path d="M0,20 L32,50 L24,62 L-6,30 Z" />
      <path d="M-10,105 L-26,168 L-10,172 L2,112 Z" />
      <path d="M10,105 L26,168 L10,172 L-2,112 Z" />
    </g>
  <rect x="0" y="515" width="500" height="235" fill="black" opacity="0.38"/>
  <text x="250" y="597" text-anchor="middle" font-size="40" font-weight="800" fill="white" letter-spacing="1">RRR<tspan x="250" dy="1.1em" font-size="24">Rise Roar Revolt</tspan></text>
  <text x="250" y="687" text-anchor="middle" font-size="18" font-weight="400" fill="rgba(255,255,255,0.85)" font-style="italic">Friendship. Fire. Freedom.</text>
  <text x="250" y="727" text-anchor="middle" font-size="15" font-weight="600" fill="rgba(255,255,255,0.55)" letter-spacing="3">A PVR EXCLUSIVE</text>
</svg>